<svg version="1.1" viewBox="0.0 0.0 432.0 336.0" fill="none" stroke="none" stroke-linecap="square" stroke-miterlimit="10" xmlns:xlink="http://www.w3.org/1999/xlink" xmlns="http://www.w3.org/2000/svg"><clipPath id="p.0"><path d="m0 0l432.0 0l0 336.0l-432.0 0l0 -336.0z" clip-rule="nonzero"/></clipPath><g clip-path="url(#p.0)"><path fill="#ffffff" d="m0 0l432.0 0l0 336.0l-432.0 0z" fill-rule="evenodd"/><path fill="#eeeeee" d="m147.26009 69.489716l0 0c0 -5.885357 4.7710266 -10.6563835 10.656387 -10.6563835l115.34866 0c2.826233 0 5.536743 1.1227226 7.535187 3.1211815c1.9984741 1.9984589 3.1211853 4.708954 3.1211853 7.535202l0 42.624245c0 5.885353 -4.7710266 10.65638 -10.656372 10.65638l-115.34866 0c-5.8853607 0 -10.656387 -4.7710266 -10.656387 -10.65638z" fill-rule="evenodd"/><path stroke="#595959" stroke-width="1.0" stroke-linejoin="round" stroke-linecap="butt" d="m147.26009 69.489716l0 0c0 -5.885357 4.7710266 -10.6563835 10.656387 -10.6563835l115.34866 0c2.826233 0 5.536743 1.1227226 7.535187 3.1211815c1.9984741 1.9984589 3.1211853 4.708954 3.1211853 7.535202l0 42.624245c0 5.885353 -4.7710266 10.65638 -10.656372 10.65638l-115.34866 0c-5.8853607 0 -10.656387 -4.7710266 -10.656387 -10.65638z" fill-rule="evenodd"/><path fill="#000000" d="m177.7532 92.893715q0 -0.828125 -0.21875 -1.171875q-0.21875 -0.359375 -0.71875 -0.4375q-0.484375 -0.078125 -1.28125 -0.03125l-1.359375 0.046875l0 4.28125q0 0.5 -0.015625 0.859375q0 0.34375 -0.046875 0.59375l3.5625 -0.0625q0.828125 -0.015625 1.421875 -0.265625q0.59375 -0.25 0.921875 -0.875q0.34375 -0.640625 0.34375 -1.75l0.640625 0l-0.109375 3.640625l-9.625 0l0 -0.609375q0.703125 -0.046875 0.953125 -0.328125q0.265625 -0.296875 0.296875 -0.796875q0.03125 -0.515625 0.03125 -1.171875l0 -8.0625q0 -0.375 0.015625 -0.71875q0.015625 -0.34375 0.046875 -0.625q-0.34375 0.015625 -0.6875 0.046875q-0.328125 0.015625 -0.65625 0.03125l0 -0.828125l8.96875 0l0.09375 3.265625l-0.609375 0q0 -1.09375 -0.34375 -1.65625q-0.328125 -0.578125 -0.90625 -0.765625q-0.5625 -0.203125 -1.28125 -0.1875l-1.59375 0.03125q-0.6875 0.03125 -1.0 0.28125q-0.296875 0.234375 -0.359375 0.71875q-0.0625 0.46875 -0.0625 1.21875l0 3.0l3.5 0.015625l-0.125 -1.609375l0.828125 0l0 3.921875l-0.625 0zm8.279938 4.890625l-2.65625 -6.09375q-0.296875 -0.703125 -0.46875 -1.203125q-0.171875 -0.515625 -0.234375 -0.84375q-0.0625 -0.328125 -0.078125 -0.546875l-0.8125 0.0625l0 -0.765625l3.4375 0l0 0.5625q-0.5625 0 -0.71875 0.296875q-0.15625 0.28125 -0.046875 0.765625q0.109375 0.46875 0.328125 1.0l1.4375 3.28125q0.15625 0.328125 0.296875 0.671875q0.140625 0.34375 0.265625 0.71875l0.015625 0q0.09375 -0.28125 0.21875 -0.59375q0.125 -0.328125 0.21875 -0.625l1.484375 -4.078125q0.15625 -0.453125 0.3125 -0.78125q0.171875 -0.34375 0.25 -0.515625l-1.1875 0.0625l0 -0.765625l2.9375 0l0 0.5625q-0.40625 0 -0.6875 0.28125q-0.28125 0.28125 -0.53125 0.84375q-0.25 0.546875 -0.578125 1.390625l-2.453125 6.3125l-0.75 0zm11.375366 -0.0625q-0.0625 -0.3125 -0.078125 -0.546875q-0.015625 -0.25 -0.0625 -0.515625q-0.625 0.640625 -1.375 1.0q-0.734375 0.359375 -1.546875 0.359375q-1.421875 0 -2.109375 -0.640625q-0.6875 -0.640625 -0.6875 -1.578125q0 -0.859375 0.53125 -1.484375q0.53125 -0.625 1.375 -1.015625q0.84375 -0.40625 1.84375 -0.59375q1.0 -0.203125 1.9375 -0.1875l0 -1.15625q0 -0.65625 -0.125 -1.234375q-0.109375 -0.578125 -0.484375 -0.953125q-0.359375 -0.375 -1.1875 -0.390625q-0.53125 -0.015625 -1.109375 0.21875q-0.5625 0.21875 -0.828125 0.75q0.15625 0.15625 0.1875 0.359375q0.046875 0.1875 0.046875 0.359375q0 0.21875 -0.1875 0.515625q-0.171875 0.28125 -0.640625 0.265625q-0.390625 0 -0.609375 -0.265625q-0.203125 -0.28125 -0.203125 -0.65625q0 -0.625 0.46875 -1.125q0.484375 -0.515625 1.328125 -0.8125q0.84375 -0.296875 1.90625 -0.296875q1.5625 0 2.3125 0.828125q0.75 0.828125 0.71875 2.625q0 0.6875 0 1.390625q0 0.703125 -0.015625 1.40625q0 0.6875 0 1.390625q0 0.3125 -0.015625 0.609375q-0.015625 0.296875 -0.0625 0.671875q0.34375 -0.03125 0.671875 -0.046875q0.328125 -0.015625 0.65625 -0.03125l0 0.78125l-2.65625 0zm-0.171875 -4.578125q-0.640625 0.03125 -1.34375 0.171875q-0.6875 0.140625 -1.28125 0.421875q-0.59375 0.265625 -0.953125 0.734375q-0.359375 0.453125 -0.34375 1.109375q0.03125 0.6875 0.453125 1.03125q0.421875 0.34375 1.0 0.34375q0.765625 0 1.328125 -0.28125q0.578125 -0.296875 1.140625 -0.8125q-0.015625 -0.21875 -0.015625 -0.453125q0 -0.25 0 -0.5q0 -0.09375 0 -0.59375q0.015625 -0.515625 0.015625 -1.171875zm3.9391327 4.015625q0.578125 0 0.796875 -0.28125q0.21875 -0.296875 0.25 -0.8125q0.046875 -0.515625 0.046875 -1.171875l0 -8.828125q0 -0.296875 0 -0.5625q0.015625 -0.28125 0.0625 -0.65625q-0.34375 0.015625 -0.671875 0.046875q-0.328125 0.015625 -0.65625 0.03125l0 -0.78125q0.8125 0 1.265625 -0.078125q0.46875 -0.078125 0.703125 -0.1875q0.234375 -0.109375 0.359375 -0.234375l0.546875 0l0.015625 12.09375q0 0.375 -0.015625 0.671875q-0.015625 0.28125 -0.078125 0.609375q0.296875 -0.03125 0.578125 -0.03125q0.296875 -0.015625 0.59375 -0.03125l0 0.765625l-3.796875 0l0 -0.5625zm9.183884 0.859375q-1.0 0 -1.6875 -0.375q-0.671875 -0.375 -1.015625 -1.265625q-0.34375 -0.890625 -0.34375 -2.421875l0 -3.328125q0 -0.296875 0 -0.59375q0.015625 -0.296875 0.0625 -0.609375q-0.3125 0.015625 -0.640625 0.03125q-0.328125 0 -0.640625 0.015625l0 -0.765625l0.578125 0q0.796875 0 1.15625 -0.15625q0.375 -0.15625 0.578125 -0.34375l0.546875 0l0 5.6875q0 1.609375 0.453125 2.40625q0.453125 0.78125 1.5625 0.765625q0.703125 -0.015625 1.34375 -0.4375q0.640625 -0.421875 1.046875 -1.0l0 -4.796875q0 -0.4375 0.015625 -0.765625q0.015625 -0.328125 0.0625 -0.640625q-0.328125 0.015625 -0.671875 0.03125q-0.328125 0 -0.65625 0.015625l0 -0.765625l0.578125 0q0.796875 0 1.15625 -0.15625q0.359375 -0.15625 0.578125 -0.34375l0.53125 0l-0.015625 7.046875q0 0.296875 -0.015625 0.84375q-0.015625 0.546875 -0.0625 0.921875q0.34375 -0.03125 0.671875 -0.046875q0.34375 -0.015625 0.671875 -0.03125l0 0.78125l-2.671875 0q-0.046875 -0.3125 -0.078125 -0.59375q-0.03125 -0.28125 -0.046875 -0.53125q-0.578125 0.578125 -1.40625 1.0q-0.8125 0.421875 -1.640625 0.421875zm12.887787 -0.296875q-0.0625 -0.3125 -0.078125 -0.546875q-0.015625 -0.25 -0.0625 -0.515625q-0.625 0.640625 -1.375 1.0q-0.734375 0.359375 -1.546875 0.359375q-1.421875 0 -2.109375 -0.640625q-0.6875 -0.640625 -0.6875 -1.578125q0 -0.859375 0.53125 -1.484375q0.53125 -0.625 1.375 -1.015625q0.84375 -0.40625 1.84375 -0.59375q1.0 -0.203125 1.9375 -0.1875l0 -1.15625q0 -0.65625 -0.125 -1.234375q-0.109375 -0.578125 -0.484375 -0.953125q-0.359375 -0.375 -1.1875 -0.390625q-0.53125 -0.015625 -1.109375 0.21875q-0.5625 0.21875 -0.828125 0.75q0.15625 0.15625 0.1875 0.359375q0.046875 0.1875 0.046875 0.359375q0 0.21875 -0.1875 0.515625q-0.171875 0.28125 -0.640625 0.265625q-0.390625 0 -0.609375 -0.265625q-0.203125 -0.28125 -0.203125 -0.65625q0 -0.625 0.46875 -1.125q0.484375 -0.515625 1.328125 -0.8125q0.84375 -0.296875 1.90625 -0.296875q1.5625 0 2.3125 0.828125q0.75 0.828125 0.71875 2.625q0 0.6875 0 1.390625q0 0.703125 -0.015625 1.40625q0 0.6875 0 1.390625q0 0.3125 -0.015625 0.609375q-0.015625 0.296875 -0.0625 0.671875q0.34375 -0.03125 0.671875 -0.046875q0.328125 -0.015625 0.65625 -0.03125l0 0.78125l-2.65625 0zm-0.171875 -4.578125q-0.640625 0.03125 -1.34375 0.171875q-0.6875 0.140625 -1.28125 0.421875q-0.59375 0.265625 -0.953125 0.734375q-0.359375 0.453125 -0.34375 1.109375q0.03125 0.6875 0.453125 1.03125q0.421875 0.34375 1.0 0.34375q0.765625 0 1.328125 -0.28125q0.578125 -0.296875 1.140625 -0.8125q-0.015625 -0.21875 -0.015625 -0.453125q0 -0.25 0 -0.5q0 -0.09375 0 -0.59375q0.015625 -0.515625 0.015625 -1.171875zm7.4959717 4.875q-0.421875 0 -0.875 -0.125q-0.453125 -0.109375 -0.84375 -0.46875q-0.375 -0.359375 -0.59375 -1.03125q-0.21875 -0.6875 -0.21875 -1.8125l0.03125 -5.40625l-1.4375 0.015625l0 -0.796875q0.484375 -0.015625 0.984375 -0.359375q0.515625 -0.34375 0.90625 -0.9375q0.40625 -0.609375 0.546875 -1.3125l0.640625 0l0 2.609375l3.140625 0l0 0.734375l-3.140625 0.03125l-0.03125 5.1875q0 0.84375 0.140625 1.4375q0.140625 0.578125 0.453125 0.875q0.3125 0.296875 0.8125 0.296875q0.53125 0 0.984375 -0.296875q0.453125 -0.296875 0.8125 -0.828125l0.5 0.421875q-0.40625 0.609375 -0.8125 0.96875q-0.390625 0.34375 -0.765625 0.515625q-0.375 0.1875 -0.703125 0.234375q-0.3125 0.046875 -0.53125 0.046875zm3.7199707 -0.859375q0.578125 0 0.796875 -0.28125q0.21875 -0.296875 0.25 -0.8125q0.046875 -0.515625 0.046875 -1.171875l0 -4.265625q0 -0.296875 0.015625 -0.5625q0.015625 -0.265625 0.0625 -0.640625q-0.34375 0.015625 -0.671875 0.03125q-0.328125 0.015625 -0.65625 0.03125l0 -0.78125q0.828125 0 1.265625 -0.0625q0.453125 -0.078125 0.6875 -0.1875q0.234375 -0.125 0.359375 -0.25l0.546875 0l0 7.53125q0 0.375 -0.015625 0.671875q-0.015625 0.28125 -0.0625 0.609375q0.296875 -0.03125 0.578125 -0.03125q0.296875 -0.015625 0.59375 -0.03125l0 0.765625l-3.796875 0l0 -0.5625zm1.78125 -10.796875q-0.390625 0 -0.6875 -0.3125q-0.296875 -0.328125 -0.296875 -0.796875q0 -0.453125 0.296875 -0.78125q0.3125 -0.328125 0.703125 -0.328125q0.4375 0 0.71875 0.328125q0.296875 0.328125 0.296875 0.78125q0 0.46875 -0.3125 0.796875q-0.3125 0.3125 -0.71875 0.3125zm8.086151 11.65625q-1.3125 0 -2.375 -0.609375q-1.0625 -0.609375 -1.6875 -1.671875q-0.625 -1.078125 -0.625 -2.453125q0 -1.46875 0.609375 -2.640625q0.625 -1.1875 1.6875 -1.859375q1.0625 -0.6875 2.390625 -0.6875q1.296875 0 2.359375 0.625q1.0625 0.625 1.703125 1.6875q0.640625 1.0625 0.640625 2.421875q0 1.4375 -0.625 2.625q-0.625 1.1875 -1.703125 1.875q-1.0625 0.6875 -2.375 0.6875zm0.140625 -0.75q0.984375 0 1.5625 -0.546875q0.59375 -0.5625 0.84375 -1.453125q0.25 -0.90625 0.25 -1.890625q0 -0.84375 -0.171875 -1.65625q-0.15625 -0.8125 -0.5 -1.46875q-0.328125 -0.671875 -0.859375 -1.0625q-0.53125 -0.390625 -1.265625 -0.390625q-0.96875 0 -1.59375 0.5625q-0.609375 0.5625 -0.90625 1.46875q-0.28125 0.890625 -0.28125 1.90625q0 1.15625 0.3125 2.203125q0.3125 1.03125 0.96875 1.6875q0.65625 0.640625 1.640625 0.640625zm6.148285 0.453125l0 -0.5625q0.578125 0 0.796875 -0.28125q0.21875 -0.296875 0.25 -0.8125q0.046875 -0.515625 0.046875 -1.171875l0.015625 -4.265625q0 -0.296875 0 -0.59375q0.015625 -0.296875 0.078125 -0.609375q-0.34375 0.015625 -0.671875 0.03125q-0.3125 0.015625 -0.65625 0.03125l0 -0.78125q0.828125 0 1.234375 -0.0625q0.421875 -0.078125 0.625 -0.1875q0.21875 -0.125 0.34375 -0.25l0.546875 0q0.015625 0.125 0.015625 0.296875q0.015625 0.171875 0.03125 0.375q0.015625 0.203125 0.015625 0.46875q0.421875 -0.359375 0.90625 -0.640625q0.5 -0.28125 1.046875 -0.4375q0.546875 -0.171875 1.09375 -0.171875q1.625 0 2.359375 1.015625q0.75 1.015625 0.75 3.15625l0 3.46875q0 0.375 -0.015625 0.671875q0 0.28125 -0.046875 0.609375q0.296875 -0.03125 0.578125 -0.03125q0.296875 -0.015625 0.59375 -0.03125l0 0.765625l-3.8125 0l0 -0.5625q0.578125 0 0.796875 -0.28125q0.234375 -0.296875 0.265625 -0.8125q0.046875 -0.515625 0.046875 -1.171875l0 -2.625q-0.015625 -1.59375 -0.53125 -2.40625q-0.515625 -0.828125 -1.625 -0.8125q-0.65625 0.015625 -1.3125 0.359375q-0.640625 0.328125 -1.0625 0.84375q0.015625 0.15625 0.015625 0.34375q0 0.1875 0 0.390625l-0.015625 4.75q0 0.375 -0.015625 0.671875q-0.015625 0.28125 -0.0625 0.609375q0.296875 -0.03125 0.578125 -0.03125q0.296875 -0.015625 0.59375 -0.03125l0 0.765625l-3.796875 0z" fill-rule="nonzero"/><path fill="#000000" fill-opacity="0.0" d="m261.47244 122.53674l67.74802 118.17323" fill-rule="evenodd"/><path stroke="#595959" stroke-width="1.0" stroke-linejoin="round" stroke-linecap="butt" d="m261.47244 122.53674l64.763885 112.96796" fill-rule="evenodd"/><path fill="#595959" stroke="#595959" stroke-width="1.0" stroke-linecap="butt" d="m324.80338 236.3262l3.6900024 3.115509l-0.8240967 -4.7585144z" fill-rule="evenodd"/><path fill="#000000" fill-opacity="0.0" d="m103.291336 240.37927l67.71654 -117.51182" fill-rule="evenodd"/><path stroke="#595959" stroke-width="1.0" stroke-linejoin="round" stroke-linecap="butt" d="m103.291336 240.37927l64.72081 -112.3132" fill-rule="evenodd"/><path fill="#595959" stroke="#595959" stroke-width="1.0" stroke-linecap="butt" d="m169.44327 128.89076l0.83470154 -4.7566605l-3.6969452 3.1072845z" fill-rule="evenodd"/><path fill="#000000" fill-opacity="0.0" d="m153.74803 286.89896l124.50395 0" fill-rule="evenodd"/><path stroke="#595959" stroke-width="1.0" stroke-linejoin="round" stroke-linecap="butt" d="m159.74803 286.89896l118.50395 0" fill-rule="evenodd"/><path fill="#595959" stroke="#595959" stroke-width="1.0" stroke-linecap="butt" d="m159.74803 285.24722l-4.538101 1.6517334l4.538101 1.6517334z" fill-rule="evenodd"/><path fill="#000000" fill-opacity="0.0" d="m115.14173 14.111548l50.299217 0l0 42.015747l-50.299217 0z" fill-rule="evenodd"/><path fill="#595959" d="m125.17298 40.422173q0.703125 -0.046875 0.953125 -0.328125q0.265625 -0.296875 0.296875 -0.796875q0.03125 -0.515625 0.03125 -1.171875l0 -8.0625q0 -0.375 0.015625 -0.71875q0.015625 -0.34375 0.046875 -0.625q-0.34375 0.015625 -0.6875 0.046875q-0.328125 0.015625 -0.65625 0.03125l0 -0.828125q0.984375 -0.015625 2.03125 -0.015625q1.0468826 -0.015625 2.1250076 -0.015625q1.8125 0 3.03125 0.40625q1.234375 0.40625 1.890625 1.21875q0.65625 0.796875 0.71875 1.984375q0.03125 0.734375 -0.21875 1.53125q-0.25 0.796875 -0.9375 1.5q-0.671875 0.6875 -1.90625 1.125q-1.234375 0.421875 -3.15625 0.421875q-0.078125 0 -0.28125 0q-0.203125 0 -0.390625 -0.015625l0 2.703125q0 0.5 -0.015625 0.875q0 0.359375 -0.046875 0.59375q0.296875 -0.015625 0.578125 -0.03125q0.28125 -0.015625 0.5625 -0.03125q0.296875 -0.015625 0.578125 -0.03125l0 0.84375l-4.5625076 0l0 -0.609375zm2.9062576 -5.078125q0.359375 0.03125 0.609375 0.046875q0.25 0 0.609375 0q1.0625 0 1.9375 -0.40625q0.875 -0.421875 1.390625 -1.203125q0.53125 -0.796875 0.53125 -1.875q0 -0.875 -0.28125 -1.5q-0.28125 -0.625 -0.796875 -1.0q-0.515625 -0.390625 -1.234375 -0.5625q-0.703125 -0.1875 -1.546875 -0.1875q-0.65625 0 -0.90625 0.28125q-0.25 0.28125 -0.28125 0.78125q-0.03125 0.484375 -0.03125 1.15625l0 4.46875z" fill-rule="nonzero"/><path fill="#595959" d="m139.32243 48.234673q-0.953125 0 -1.578125 -0.40625q-0.625 -0.40625 -0.96875 -1.0625q-0.34375 -0.671875 -0.484375 -1.46875q-0.140625 -0.796875 -0.140625 -1.578125q0 -0.78125 0.171875 -1.59375q0.1875 -0.8125 0.5625 -1.484375q0.390625 -0.6875 1.0 -1.09375q0.609375 -0.421875 1.484375 -0.421875q0.90625 0 1.5 0.421875q0.609375 0.40625 0.953125 1.078125q0.359375 0.65625 0.515625 1.453125q0.15625 0.796875 0.15625 1.578125q0 0.765625 -0.1875 1.578125q-0.171875 0.8125 -0.546875 1.484375q-0.375 0.671875 -0.984375 1.09375q-0.59375 0.421875 -1.453125 0.421875zm0.0625 -0.484375q0.546875 0 0.890625 -0.328125q0.34375 -0.34375 0.546875 -0.90625q0.203125 -0.5625 0.296875 -1.234375q0.09375 -0.6875 0.09375 -1.359375q0 -0.765625 -0.09375 -1.515625q-0.09375 -0.765625 -0.3125 -1.390625q-0.203125 -0.640625 -0.5625 -1.03125q-0.359375 -0.390625 -0.90625 -0.390625q-0.53125 0 -0.90625 0.34375q-0.359375 0.328125 -0.59375 0.890625q-0.21875 0.5625 -0.3125 1.25q-0.09375 0.671875 -0.09375 1.375q0 0.53125 0.046875 1.109375q0.046875 0.578125 0.171875 1.15625q0.140625 0.5625 0.359375 1.03125q0.21875 0.453125 0.546875 0.734375q0.34375 0.265625 0.828125 0.265625z" fill-rule="nonzero"/><path fill="#000000" fill-opacity="0.0" d="m165.44095 35.119423c25.070862 0 50.141724 11.858269 50.141724 23.716534" fill-rule="evenodd"/><path stroke="#595959" stroke-width="1.0" stroke-linejoin="round" stroke-linecap="butt" d="m165.44095 35.119423c12.535431 0 25.070862 2.9645653 34.472443 7.411415c4.700775 2.2234268 8.618103 4.817425 11.3602295 7.5967064c0.6855316 0.6948204 1.2976074 1.4012184 1.8301392 2.1163025c0.13311768 0.17877579 0.26127625 0.35808945 0.38435364 0.537899c0.061553955 0.089904785 0.12181091 0.17993927 0.18080139 0.27008438l0.051452637 0.080459595" fill-rule="evenodd"/><path fill="#595959" stroke="#595959" stroke-width="1.0" stroke-linecap="butt" d="m212.15022 53.644962l2.9786987 3.8012962l0.16160583 -4.8266373z" fill-rule="evenodd"/><path fill="#eeeeee" d="m278.25223 251.59995l0 0c0 -5.8853455 4.7710266 -10.656372 10.656372 -10.656372l115.34866 0c2.826233 0 5.536743 1.1227264 7.535187 3.1211853c1.9984741 1.9984589 3.1211853 4.7089386 3.1211853 7.535187l0 42.624237c0 5.885376 -4.7710266 10.656403 -10.656372 10.656403l-115.34866 0c-5.8853455 0 -10.656372 -4.7710266 -10.656372 -10.656403z" fill-rule="evenodd"/><path stroke="#595959" stroke-width="1.0" stroke-linejoin="round" stroke-linecap="butt" d="m278.25223 251.59995l0 0c0 -5.8853455 4.7710266 -10.656372 10.656372 -10.656372l115.34866 0c2.826233 0 5.536743 1.1227264 7.535187 3.1211853c1.9984741 1.9984589 3.1211853 4.7089386 3.1211853 7.535187l0 42.624237c0 5.885376 -4.7710266 10.656403 -10.656372 10.656403l-115.34866 0c-5.8853455 0 -10.656372 -4.7710266 -10.656372 -10.656403z" fill-rule="evenodd"/><path fill="#000000" d="m314.78476 270.7227q-0.0625 -0.890625 -0.4375 -1.6875q-0.359375 -0.8125 -1.078125 -1.3125q-0.703125 -0.5 -1.8125 -0.5q-1.15625 0 -1.765625 0.65625q-0.609375 0.640625 -0.609375 1.53125q0 0.78125 0.4375 1.3125q0.453125 0.53125 1.171875 0.9375q0.71875 0.390625 1.515625 0.765625q0.71875 0.3125 1.421875 0.6875q0.703125 0.359375 1.28125 0.828125q0.578125 0.46875 0.921875 1.109375q0.34375 0.640625 0.34375 1.53125q0 1.03125 -0.515625 1.84375q-0.5 0.796875 -1.46875 1.25q-0.96875 0.453125 -2.375 0.453125q-0.84375 0 -1.734375 -0.25q-0.890625 -0.234375 -1.578125 -0.703125l0.09375 0.8125l-0.984375 0l-0.109375 -3.984375l0.734375 0q0.09375 1.640625 1.140625 2.5q1.046875 0.84375 2.515625 0.84375q0.71875 0 1.328125 -0.265625q0.625 -0.28125 0.984375 -0.796875q0.375 -0.53125 0.375 -1.265625q0 -0.84375 -0.453125 -1.40625q-0.453125 -0.5625 -1.15625 -0.96875q-0.703125 -0.40625 -1.515625 -0.78125q-0.703125 -0.3125 -1.390625 -0.671875q-0.6875 -0.359375 -1.265625 -0.8125q-0.5625 -0.453125 -0.90625 -1.078125q-0.34375 -0.640625 -0.34375 -1.546875q0 -0.484375 0.15625 -1.03125q0.171875 -0.5625 0.59375 -1.078125q0.421875 -0.515625 1.15625 -0.84375q0.734375 -0.328125 1.875 -0.328125q0.703125 0 1.59375 0.203125q0.890625 0.1875 1.65625 0.75l-0.078125 -0.796875l0.953125 0l0 4.09375l-0.671875 0zm7.5468445 9.40625q-1.28125 0 -2.3125 -0.609375q-1.03125 -0.609375 -1.640625 -1.71875q-0.59375 -1.109375 -0.59375 -2.609375q0 -1.3125 0.578125 -2.453125q0.59375 -1.140625 1.65625 -1.828125q1.0625 -0.703125 2.46875 -0.703125q0.78125 0 1.453125 0.25q0.6875 0.25 1.203125 0.765625q0.53125 0.515625 0.828125 1.296875q0.296875 0.765625 0.296875 1.8125l-6.5625 0.109375q0 1.421875 0.3125 2.5q0.3125 1.0625 1.0 1.65625q0.6875 0.578125 1.765625 0.578125q0.578125 0 1.1875 -0.203125q0.609375 -0.203125 1.125 -0.546875q0.53125 -0.359375 0.84375 -0.796875l0.453125 0.375q-0.515625 0.78125 -1.21875 1.25q-0.703125 0.46875 -1.453125 0.671875q-0.75 0.203125 -1.390625 0.203125zm-2.5625 -6.46875l4.75 0q0 -0.671875 -0.203125 -1.296875q-0.1875 -0.625 -0.640625 -1.03125q-0.4375 -0.40625 -1.171875 -0.40625q-1.078125 0 -1.796875 0.65625q-0.71875 0.640625 -0.9375 2.078125zm7.9866943 5.609375q0.578125 0 0.796875 -0.28125q0.21875 -0.296875 0.25 -0.8125q0.046875 -0.515625 0.046875 -1.171875l0 -8.828125q0 -0.296875 0 -0.5625q0.015625 -0.28125 0.0625 -0.65625q-0.34375 0.015625 -0.671875 0.046875q-0.328125 0.015625 -0.65625 0.03125l0 -0.78125q0.8125 0 1.265625 -0.078125q0.46875 -0.078125 0.703125 -0.1875q0.234375 -0.109375 0.359375 -0.234375l0.546875 0l0.015625 12.09375q0 0.375 -0.015625 0.671875q-0.015625 0.28125 -0.078125 0.609375q0.296875 -0.03125 0.578125 -0.03125q0.296875 -0.015625 0.59375 -0.03125l0 0.765625l-3.796875 0l0 -0.5625zm9.762024 0.859375q-1.28125 0 -2.3125 -0.609375q-1.03125 -0.609375 -1.640625 -1.71875q-0.59375 -1.109375 -0.59375 -2.609375q0 -1.3125 0.578125 -2.453125q0.59375 -1.140625 1.65625 -1.828125q1.0625 -0.703125 2.46875 -0.703125q0.78125 0 1.453125 0.25q0.6875 0.25 1.203125 0.765625q0.53125 0.515625 0.828125 1.296875q0.296875 0.765625 0.296875 1.8125l-6.5625 0.109375q0 1.421875 0.3125 2.5q0.3125 1.0625 1.0 1.65625q0.6875 0.578125 1.765625 0.578125q0.578125 0 1.1875 -0.203125q0.609375 -0.203125 1.125 -0.546875q0.53125 -0.359375 0.84375 -0.796875l0.453125 0.375q-0.515625 0.78125 -1.21875 1.25q-0.703125 0.46875 -1.453125 0.671875q-0.75 0.203125 -1.390625 0.203125zm-2.5625 -6.46875l4.75 0q0 -0.671875 -0.203125 -1.296875q-0.1875 -0.625 -0.640625 -1.03125q-0.4375 -0.40625 -1.171875 -0.40625q-1.078125 0 -1.796875 0.65625q-0.71875 0.640625 -0.9375 2.078125zm12.627716 6.46875q-1.25 0 -2.3125 -0.5625q-1.046875 -0.578125 -1.671875 -1.640625q-0.625 -1.078125 -0.625 -2.59375q0 -0.96875 0.34375 -1.875q0.359375 -0.921875 1.0 -1.65625q0.65625 -0.734375 1.546875 -1.15625q0.890625 -0.4375 1.984375 -0.4375q1.03125 0 1.8125 0.3125q0.78125 0.3125 1.203125 0.84375q0.421875 0.515625 0.421875 1.140625q0 0.40625 -0.21875 0.703125q-0.21875 0.28125 -0.65625 0.28125q-0.453125 0.015625 -0.65625 -0.28125q-0.203125 -0.3125 -0.203125 -0.5625q0 -0.1875 0.0625 -0.375q0.0625 -0.203125 0.21875 -0.359375q-0.140625 -0.453125 -0.515625 -0.671875q-0.375 -0.21875 -0.78125 -0.28125q-0.390625 -0.0625 -0.65625 -0.0625q-1.265625 0 -2.140625 1.015625q-0.859375 1.015625 -0.859375 2.953125q0 1.25 0.390625 2.234375q0.40625 0.96875 1.125 1.515625q0.734375 0.546875 1.6875 0.546875q0.875 0 1.671875 -0.46875q0.8125 -0.46875 1.265625 -1.140625l0.484375 0.375q-0.484375 0.78125 -1.171875 1.265625q-0.6875 0.484375 -1.40625 0.703125q-0.71875 0.234375 -1.34375 0.234375zm8.784912 0q-0.421875 0 -0.875 -0.125q-0.453125 -0.109375 -0.84375 -0.46875q-0.375 -0.359375 -0.59375 -1.03125q-0.21875 -0.6875 -0.21875 -1.8125l0.03125 -5.40625l-1.4375 0.015625l0 -0.796875q0.484375 -0.015625 0.984375 -0.359375q0.515625 -0.34375 0.90625 -0.9375q0.40625 -0.609375 0.546875 -1.3125l0.640625 0l0 2.609375l3.140625 0l0 0.734375l-3.140625 0.03125l-0.03125 5.1875q0 0.84375 0.140625 1.4375q0.140625 0.578125 0.453125 0.875q0.3125 0.296875 0.8125 0.296875q0.53125 0 0.984375 -0.296875q0.453125 -0.296875 0.8125 -0.828125l0.5 0.421875q-0.40625 0.609375 -0.8125 0.96875q-0.390625 0.34375 -0.765625 0.515625q-0.375 0.1875 -0.703125 0.234375q-0.3125 0.046875 -0.53125 0.046875zm3.7199707 -0.859375q0.578125 0 0.796875 -0.28125q0.21875 -0.296875 0.25 -0.8125q0.046875 -0.515625 0.046875 -1.171875l0 -4.265625q0 -0.296875 0.015625 -0.5625q0.015625 -0.265625 0.0625 -0.640625q-0.34375 0.015625 -0.671875 0.03125q-0.328125 0.015625 -0.65625 0.03125l0 -0.78125q0.828125 0 1.265625 -0.0625q0.453125 -0.078125 0.6875 -0.1875q0.234375 -0.125 0.359375 -0.25l0.546875 0l0 7.53125q0 0.375 -0.015625 0.671875q-0.015625 0.28125 -0.0625 0.609375q0.296875 -0.03125 0.578125 -0.03125q0.296875 -0.015625 0.59375 -0.03125l0 0.765625l-3.796875 0l0 -0.5625zm1.78125 -10.796875q-0.390625 0 -0.6875 -0.3125q-0.296875 -0.328125 -0.296875 -0.796875q0 -0.453125 0.296875 -0.78125q0.3125 -0.328125 0.703125 -0.328125q0.4375 0 0.71875 0.328125q0.296875 0.328125 0.296875 0.78125q0 0.46875 -0.3125 0.796875q-0.3125 0.3125 -0.71875 0.3125zm8.086151 11.65625q-1.3125 0 -2.375 -0.609375q-1.0625 -0.609375 -1.6875 -1.671875q-0.625 -1.078125 -0.625 -2.453125q0 -1.46875 0.609375 -2.640625q0.625 -1.1875 1.6875 -1.859375q1.0625 -0.6875 2.390625 -0.6875q1.296875 0 2.359375 0.625q1.0625 0.625 1.703125 1.6875q0.640625 1.0625 0.640625 2.421875q0 1.4375 -0.625 2.625q-0.625 1.1875 -1.703125 1.875q-1.0625 0.6875 -2.375 0.6875zm0.140625 -0.75q0.984375 0 1.5625 -0.546875q0.59375 -0.5625 0.84375 -1.453125q0.25 -0.90625 0.25 -1.890625q0 -0.84375 -0.171875 -1.65625q-0.15625 -0.8125 -0.5 -1.46875q-0.328125 -0.671875 -0.859375 -1.0625q-0.53125 -0.390625 -1.265625 -0.390625q-0.96875 0 -1.59375 0.5625q-0.609375 0.5625 -0.90625 1.46875q-0.28125 0.890625 -0.28125 1.90625q0 1.15625 0.3125 2.203125q0.3125 1.03125 0.96875 1.6875q0.65625 0.640625 1.640625 0.640625zm6.148285 0.453125l0 -0.5625q0.578125 0 0.796875 -0.28125q0.21875 -0.296875 0.25 -0.8125q0.046875 -0.515625 0.046875 -1.171875l0.015625 -4.265625q0 -0.296875 0 -0.59375q0.015625 -0.296875 0.078125 -0.609375q-0.34375 0.015625 -0.671875 0.03125q-0.3125 0.015625 -0.65625 0.03125l0 -0.78125q0.828125 0 1.234375 -0.0625q0.421875 -0.078125 0.625 -0.1875q0.21875 -0.125 0.34375 -0.25l0.546875 0q0.015625 0.125 0.015625 0.296875q0.015625 0.171875 0.03125 0.375q0.015625 0.203125 0.015625 0.46875q0.421875 -0.359375 0.90625 -0.640625q0.5 -0.28125 1.046875 -0.4375q0.546875 -0.171875 1.09375 -0.171875q1.625 0 2.359375 1.015625q0.75 1.015625 0.75 3.15625l0 3.46875q0 0.375 -0.015625 0.671875q0 0.28125 -0.046875 0.609375q0.296875 -0.03125 0.578125 -0.03125q0.296875 -0.015625 0.59375 -0.03125l0 0.765625l-3.8125 0l0 -0.5625q0.578125 0 0.796875 -0.28125q0.234375 -0.296875 0.265625 -0.8125q0.046875 -0.515625 0.046875 -1.171875l0 -2.625q-0.015625 -1.59375 -0.53125 -2.40625q-0.515625 -0.828125 -1.625 -0.8125q-0.65625 0.015625 -1.3125 0.359375q-0.640625 0.328125 -1.0625 0.84375q0.015625 0.15625 0.015625 0.34375q0 0.1875 0 0.390625l-0.015625 4.75q0 0.375 -0.015625 0.671875q-0.015625 0.28125 -0.0625 0.609375q0.296875 -0.03125 0.578125 -0.03125q0.296875 -0.015625 0.59375 -0.03125l0 0.765625l-3.796875 0z" fill-rule="nonzero"/><path fill="#eeeeee" d="m17.086863 251.59995l0 0c0 -5.8853455 4.7710247 -10.656372 10.656382 -10.656372l115.34866 0c2.8262482 0 5.536728 1.1227264 7.535202 3.1211853c1.9984589 1.9984589 3.12117 4.7089386 3.12117 7.535187l0 42.624237c0 5.885376 -4.7710266 10.656403 -10.656372 10.656403l-115.34866 0c-5.885357 0 -10.656382 -4.7710266 -10.656382 -10.656403z" fill-rule="evenodd"/><path stroke="#595959" stroke-width="1.0" stroke-linejoin="round" stroke-linecap="butt" d="m17.086863 251.59995l0 0c0 -5.8853455 4.7710247 -10.656372 10.656382 -10.656372l115.34866 0c2.8262482 0 5.536728 1.1227264 7.535202 3.1211853c1.9984589 1.9984589 3.12117 4.7089386 3.12117 7.535187l0 42.624237c0 5.885376 -4.7710266 10.656403 -10.656372 10.656403l-115.34866 0c-5.885357 0 -10.656382 -4.7710266 -10.656382 -10.656403z" fill-rule="evenodd"/><path fill="#000000" d="m38.4722 280.01956q-0.828125 -1.859375 -1.671875 -3.71875q-0.828125 -1.859375 -1.640625 -3.765625q-0.25 -0.59375 -0.5 -1.203125q-0.25 -0.609375 -0.484375 -1.21875q-0.234375 -0.609375 -0.484375 -1.234375q0 0.203125 -0.015625 0.421875q0 0.203125 0 0.40625q-0.015625 0.671875 -0.046875 1.609375q-0.03125 0.9375 -0.078125 2.015625q-0.03125 1.078125 -0.046875 2.15625q-0.015625 1.0625 -0.03125 2.015625q-0.015625 0.40625 -0.03125 0.828125q-0.015625 0.40625 -0.046875 0.75q0.359375 -0.015625 0.703125 -0.03125q0.34375 -0.015625 0.703125 -0.046875l0 0.828125l-3.562502 0l0 -0.609375q0.578125 -0.03125 0.8437519 -0.25q0.265625 -0.234375 0.34375 -0.625q0.078125 -0.40625 0.09375 -0.84375l0.359375 -8.515625q0.015625 -0.375 0.015625 -0.734375q0.015625 -0.375 0.03125 -0.734375q-0.328125 0.015625 -0.671875 0.03125q-0.3281269 0 -0.6718769 0.03125l0 -0.8125l2.859377 0l3.203125 7.40625q0.25 0.5625 0.484375 1.125q0.234375 0.5625 0.484375 1.125q0.25 0.546875 0.484375 1.125l0.046875 0q0.203125 -0.5 0.484375 -1.1875q0.28125 -0.703125 0.46875 -1.21875q0.8125 -2.046875 1.703125 -4.109375q0.890625 -2.0625 1.75 -4.265625l2.75 0l0 0.625q-0.46875 -0.03125 -0.765625 0.171875q-0.296875 0.1875 -0.421875 0.640625q-0.125 0.453125 -0.09375 1.21875l0.484375 8.484375q0.03125 0.3125 0.03125 0.625q0 0.296875 0 0.53125q0.34375 -0.015625 0.6875 -0.015625q0.34375 -0.015625 0.671875 -0.046875l0 0.828125l-4.171875 0l0 -0.609375q0.578125 -0.03125 0.859375 -0.28125q0.28125 -0.265625 0.34375 -0.75q0.0625 -0.484375 0.03125 -1.1875l-0.375 -6.171875q-0.015625 -0.296875 -0.046875 -0.59375q-0.015625 -0.296875 -0.03125 -0.59375q-0.015625 -0.296875 -0.03125 -0.59375q-0.0625 0.125 -0.125 0.28125q-0.0625 0.140625 -0.125 0.3125l-4.1875 10.375l-0.5625 0zm14.386398 0.109375q-1.3125 0 -2.375 -0.609375q-1.0625 -0.609375 -1.6875 -1.671875q-0.625 -1.078125 -0.625 -2.453125q0 -1.46875 0.609375 -2.640625q0.625 -1.1875 1.6875 -1.859375q1.0625 -0.6875 2.390625 -0.6875q1.296875 0 2.359375 0.625q1.0625 0.625 1.703125 1.6875q0.640625 1.0625 0.640625 2.421875q0 1.4375 -0.625 2.625q-0.625 1.1875 -1.703125 1.875q-1.0625 0.6875 -2.375 0.6875zm0.140625 -0.75q0.984375 0 1.5625 -0.546875q0.59375 -0.5625 0.84375 -1.453125q0.25 -0.90625 0.25 -1.890625q0 -0.84375 -0.171875 -1.65625q-0.15625 -0.8125 -0.5 -1.46875q-0.328125 -0.671875 -0.859375 -1.0625q-0.53125 -0.390625 -1.265625 -0.390625q-0.96875 0 -1.59375 0.5625q-0.609375 0.5625 -0.90625 1.46875q-0.28125 0.890625 -0.28125 1.90625q0 1.15625 0.3125 2.203125q0.3125 1.03125 0.96875 1.6875q0.65625 0.640625 1.640625 0.640625zm10.13266 0.75q-1.140625 0 -2.0625 -0.5625q-0.90625 -0.578125 -1.4375 -1.640625q-0.53125 -1.0625 -0.53125 -2.5q0 -1.53125 0.609375 -2.703125q0.625 -1.171875 1.71875 -1.84375q1.09375 -0.671875 2.46875 -0.671875q0.609375 0 1.21875 0.15625q0.609375 0.15625 0.96875 0.359375l0 -2.546875q0 -0.296875 0 -0.5625q0.015625 -0.28125 0.046875 -0.65625q-0.328125 0.015625 -0.65625 0.046875q-0.328125 0.015625 -0.65625 0.03125l0 -0.78125q0.8125 0 1.25 -0.078125q0.453125 -0.078125 0.6875 -0.1875q0.234375 -0.109375 0.375 -0.234375l0.53125 0l0 12.09375q0 0.3125 -0.015625 0.609375q-0.015625 0.296875 -0.0625 0.671875q0.34375 -0.03125 0.671875 -0.046875q0.328125 -0.015625 0.65625 -0.03125l0 0.78125l-2.671875 0q-0.046875 -0.28125 -0.078125 -0.515625q-0.03125 -0.234375 -0.046875 -0.453125q-0.515625 0.578125 -1.28125 0.921875q-0.765625 0.34375 -1.703125 0.34375zm0.671875 -0.90625q0.609375 0 1.234375 -0.359375q0.625 -0.359375 1.046875 -0.875q-0.015625 -0.234375 -0.015625 -0.484375q0 -0.25 0 -0.546875l0.015625 -5.375q-0.453125 -0.328125 -0.984375 -0.484375q-0.53125 -0.171875 -1.09375 -0.171875q-0.9375 0 -1.625 0.546875q-0.6875 0.546875 -1.046875 1.515625q-0.34375 0.96875 -0.3125 2.265625q0.046875 1.140625 0.359375 2.046875q0.328125 0.890625 0.9375 1.40625q0.609375 0.515625 1.484375 0.515625zm6.500183 0.046875q0.578125 0 0.796875 -0.28125q0.21875 -0.296875 0.25 -0.8125q0.046875 -0.515625 0.046875 -1.171875l0 -4.265625q0 -0.296875 0.015625 -0.5625q0.015625 -0.265625 0.0625 -0.640625q-0.34375 0.015625 -0.671875 0.03125q-0.328125 0.015625 -0.65625 0.03125l0 -0.78125q0.828125 0 1.265625 -0.0625q0.453125 -0.078125 0.6875 -0.1875q0.234375 -0.125 0.359375 -0.25l0.546875 0l0 7.53125q0 0.375 -0.015625 0.671875q-0.015625 0.28125 -0.0625 0.609375q0.296875 -0.03125 0.578125 -0.03125q0.296875 -0.015625 0.59375 -0.03125l0 0.765625l-3.796875 0l0 -0.5625zm1.78125 -10.796875q-0.390625 0 -0.6875 -0.3125q-0.296875 -0.328125 -0.296875 -0.796875q0 -0.453125 0.296875 -0.78125q0.3125 -0.328125 0.703125 -0.328125q0.4375 0 0.71875 0.328125q0.296875 0.328125 0.296875 0.78125q0 0.46875 -0.3125 0.796875q-0.3125 0.3125 -0.71875 0.3125zm3.5705261 11.359375l0 -0.5625q0.578125 0 0.796875 -0.28125q0.21875 -0.296875 0.25 -0.8125q0.046875 -0.515625 0.046875 -1.171875l-0.03125 -5.703125l-1.53125 0.046875l0 -0.84375l1.53125 0q0 -2.328125 1.125 -3.578125q1.125 -1.265625 3.21875 -1.265625q0.96875 0 1.765625 0.203125q0.796875 0.203125 1.28125 0.578125q0.484375 0.375 0.484375 0.859375q0 0.34375 -0.21875 0.609375q-0.203125 0.265625 -0.59375 0.265625q-0.46875 0.015625 -0.65625 -0.265625q-0.171875 -0.296875 -0.171875 -0.515625q0 -0.140625 0.015625 -0.265625q0.015625 -0.125 0.078125 -0.25q-0.328125 -0.234375 -0.78125 -0.375q-0.453125 -0.140625 -1.046875 -0.140625q-0.84375 0 -1.5 0.375q-0.65625 0.375 -1.03125 1.140625q-0.375 0.765625 -0.375 1.9375l0 0.6875l4.28125 0q0.421875 0 0.734375 -0.03125q0.3125 -0.03125 0.5 -0.078125q0.1875 -0.046875 0.21875 -0.078125l0.546875 0l0 7.53125q0 0.375 -0.015625 0.671875q-0.015625 0.28125 -0.0625 0.609375q0.296875 -0.03125 0.578125 -0.03125q0.296875 -0.015625 0.59375 -0.03125l0 0.765625l-3.8125 0l0 -0.5625q0.59375 0 0.8125 -0.28125q0.21875 -0.296875 0.25 -0.8125q0.046875 -0.515625 0.046875 -1.171875l0 -4.640625q0 -0.296875 0.015625 -0.5625q0.015625 -0.265625 0.0625 -0.640625l-4.75 0.109375l0.03125 6.609375q0 0.375 -0.015625 0.65625q-0.015625 0.265625 -0.0625 0.59375q0.296875 -0.03125 0.578125 -0.03125q0.296875 -0.015625 0.59375 -0.03125l0 0.765625l-3.78125 0zm16.060349 0.296875q-1.25 0 -2.3125 -0.5625q-1.046875 -0.578125 -1.671875 -1.640625q-0.625 -1.078125 -0.625 -2.59375q0 -0.96875 0.34375 -1.875q0.359375 -0.921875 1.0 -1.65625q0.65625 -0.734375 1.546875 -1.15625q0.890625 -0.4375 1.984375 -0.4375q1.03125 0 1.8125 0.3125q0.78125 0.3125 1.203125 0.84375q0.421875 0.515625 0.421875 1.140625q0 0.40625 -0.21875 0.703125q-0.21875 0.28125 -0.65625 0.28125q-0.453125 0.015625 -0.65625 -0.28125q-0.203125 -0.3125 -0.203125 -0.5625q0 -0.1875 0.0625 -0.375q0.0625 -0.203125 0.21875 -0.359375q-0.140625 -0.453125 -0.515625 -0.671875q-0.375 -0.21875 -0.78125 -0.28125q-0.390625 -0.0625 -0.65625 -0.0625q-1.265625 0 -2.140625 1.015625q-0.859375 1.015625 -0.859375 2.953125q0 1.25 0.390625 2.234375q0.40625 0.96875 1.125 1.515625q0.734375 0.546875 1.6875 0.546875q0.875 0 1.671875 -0.46875q0.8125 -0.46875 1.265625 -1.140625l0.484375 0.375q-0.484375 0.78125 -1.171875 1.265625q-0.6875 0.484375 -1.40625 0.703125q-0.71875 0.234375 -1.34375 0.234375zm11.012787 -0.296875q-0.0625 -0.3125 -0.078125 -0.546875q-0.015625 -0.25 -0.0625 -0.515625q-0.625 0.640625 -1.375 1.0q-0.734375 0.359375 -1.546875 0.359375q-1.421875 0 -2.109375 -0.640625q-0.6875 -0.640625 -0.6875 -1.578125q0 -0.859375 0.53125 -1.484375q0.53125 -0.625 1.375 -1.015625q0.84375 -0.40625 1.84375 -0.59375q1.0 -0.203125 1.9375 -0.1875l0 -1.15625q0 -0.65625 -0.125 -1.234375q-0.109375 -0.578125 -0.484375 -0.953125q-0.359375 -0.375 -1.1875 -0.390625q-0.53125 -0.015625 -1.109375 0.21875q-0.5625 0.21875 -0.828125 0.75q0.15625 0.15625 0.1875 0.359375q0.046875 0.1875 0.046875 0.359375q0 0.21875 -0.1875 0.515625q-0.171875 0.28125 -0.640625 0.265625q-0.390625 0 -0.609375 -0.265625q-0.203125 -0.28125 -0.203125 -0.65625q0 -0.625 0.46875 -1.125q0.484375 -0.515625 1.328125 -0.8125q0.84375 -0.296875 1.90625 -0.296875q1.5625 0 2.3125 0.828125q0.75 0.828125 0.71875 2.625q0 0.6875 0 1.390625q0 0.703125 -0.015625 1.40625q0 0.6875 0 1.390625q0 0.3125 -0.015625 0.609375q-0.015625 0.296875 -0.0625 0.671875q0.34375 -0.03125 0.671875 -0.046875q0.328125 -0.015625 0.65625 -0.03125l0 0.78125l-2.65625 0zm-0.171875 -4.578125q-0.640625 0.03125 -1.34375 0.171875q-0.6875 0.140625 -1.28125 0.421875q-0.59375 0.265625 -0.953125 0.734375q-0.359375 0.453125 -0.34375 1.109375q0.03125 0.6875 0.453125 1.03125q0.421875 0.34375 1.0 0.34375q0.765625 0 1.328125 -0.28125q0.578125 -0.296875 1.140625 -0.8125q-0.015625 -0.21875 -0.015625 -0.453125q0 -0.25 0 -0.5q0 -0.09375 0 -0.59375q0.015625 -0.515625 0.015625 -1.171875zm7.4959717 4.875q-0.421875 0 -0.875 -0.125q-0.453125 -0.109375 -0.84375 -0.46875q-0.375 -0.359375 -0.59375 -1.03125q-0.21875 -0.6875 -0.21875 -1.8125l0.03125 -5.40625l-1.4375 0.015625l0 -0.796875q0.484375 -0.015625 0.984375 -0.359375q0.515625 -0.34375 0.90625 -0.9375q0.40625 -0.609375 0.546875 -1.3125l0.640625 0l0 2.609375l3.140625 0l0 0.734375l-3.140625 0.03125l-0.03125 5.1875q0 0.84375 0.140625 1.4375q0.140625 0.578125 0.453125 0.875q0.3125 0.296875 0.8125 0.296875q0.53125 0 0.984375 -0.296875q0.453125 -0.296875 0.8125 -0.828125l0.5 0.421875q-0.40625 0.609375 -0.8125 0.96875q-0.390625 0.34375 -0.765625 0.515625q-0.375 0.1875 -0.703125 0.234375q-0.3125 0.046875 -0.53125 0.046875zm3.7199707 -0.859375q0.578125 0 0.796875 -0.28125q0.21875 -0.296875 0.25 -0.8125q0.046875 -0.515625 0.046875 -1.171875l0 -4.265625q0 -0.296875 0.015625 -0.5625q0.015625 -0.265625 0.0625 -0.640625q-0.34375 0.015625 -0.671875 0.03125q-0.328125 0.015625 -0.65625 0.03125l0 -0.78125q0.828125 0 1.265625 -0.0625q0.453125 -0.078125 0.6875 -0.1875q0.234375 -0.125 0.359375 -0.25l0.546875 0l0 7.53125q0 0.375 -0.015625 0.671875q-0.015625 0.28125 -0.0625 0.609375q0.296875 -0.03125 0.578125 -0.03125q0.296875 -0.015625 0.59375 -0.03125l0 0.765625l-3.796875 0l0 -0.5625zm1.78125 -10.796875q-0.390625 0 -0.6875 -0.3125q-0.296875 -0.328125 -0.296875 -0.796875q0 -0.453125 0.296875 -0.78125q0.3125 -0.328125 0.703125 -0.328125q0.4375 0 0.71875 0.328125q0.296875 0.328125 0.296875 0.78125q0 0.46875 -0.3125 0.796875q-0.3125 0.3125 -0.71875 0.3125zm8.086151 11.65625q-1.3125 0 -2.375 -0.609375q-1.0625 -0.609375 -1.6875 -1.671875q-0.625 -1.078125 -0.625 -2.453125q0 -1.46875 0.609375 -2.640625q0.625 -1.1875 1.6875 -1.859375q1.0625 -0.6875 2.390625 -0.6875q1.296875 0 2.359375 0.625q1.0625 0.625 1.703125 1.6875q0.640625 1.0625 0.640625 2.421875q0 1.4375 -0.625 2.625q-0.625 1.1875 -1.703125 1.875q-1.0625 0.6875 -2.375 0.6875zm0.140625 -0.75q0.984375 0 1.5625 -0.546875q0.59375 -0.5625 0.84375 -1.453125q0.25 -0.90625 0.25 -1.890625q0 -0.84375 -0.171875 -1.65625q-0.15625 -0.8125 -0.5 -1.46875q-0.328125 -0.671875 -0.859375 -1.0625q-0.53125 -0.390625 -1.265625 -0.390625q-0.96875 0 -1.59375 0.5625q-0.609375 0.5625 -0.90625 1.46875q-0.28125 0.890625 -0.28125 1.90625q0 1.15625 0.3125 2.203125q0.3125 1.03125 0.96875 1.6875q0.65625 0.640625 1.640625 0.640625zm6.148285 0.453125l0 -0.5625q0.578125 0 0.796875 -0.28125q0.21875 -0.296875 0.25 -0.8125q0.046875 -0.515625 0.046875 -1.171875l0.015625 -4.265625q0 -0.296875 0 -0.59375q0.015625 -0.296875 0.078125 -0.609375q-0.34375 0.015625 -0.671875 0.03125q-0.3125 0.015625 -0.65625 0.03125l0 -0.78125q0.828125 0 1.234375 -0.0625q0.421875 -0.078125 0.625 -0.1875q0.21875 -0.125 0.34375 -0.25l0.546875 0q0.015625 0.125 0.015625 0.296875q0.015625 0.171875 0.03125 0.375q0.015625 0.203125 0.015625 0.46875q0.421875 -0.359375 0.90625 -0.640625q0.5 -0.28125 1.046875 -0.4375q0.546875 -0.171875 1.09375 -0.171875q1.625 0 2.359375 1.015625q0.75 1.015625 0.75 3.15625l0 3.46875q0 0.375 -0.015625 0.671875q0 0.28125 -0.046875 0.609375q0.296875 -0.03125 0.578125 -0.03125q0.296875 -0.015625 0.59375 -0.03125l0 0.765625l-3.8125 0l0 -0.5625q0.578125 0 0.796875 -0.28125q0.234375 -0.296875 0.265625 -0.8125q0.046875 -0.515625 0.046875 -1.171875l0 -2.625q-0.015625 -1.59375 -0.53125 -2.40625q-0.515625 -0.828125 -1.625 -0.8125q-0.65625 0.015625 -1.3125 0.359375q-0.640625 0.328125 -1.0625 0.84375q0.015625 0.15625 0.015625 0.34375q0 0.1875 0 0.390625l-0.015625 4.75q0 0.375 -0.015625 0.671875q-0.015625 0.28125 -0.0625 0.609375q0.296875 -0.03125 0.578125 -0.03125q0.296875 -0.015625 0.59375 -0.03125l0 0.765625l-3.796875 0z" fill-rule="nonzero"/><path fill="#000000" fill-opacity="0.0" d="m297.34122 155.70543l50.299194 0l0 42.015747l-50.299194 0z" fill-rule="evenodd"/><path fill="#595959" d="m307.37247 182.01605q0.703125 -0.046875 0.953125 -0.328125q0.265625 -0.296875 0.296875 -0.796875q0.03125 -0.515625 0.03125 -1.171875l0 -8.0625q0 -0.375 0.015625 -0.71875q0.015625 -0.34375 0.046875 -0.625q-0.34375 0.015625 -0.6875 0.046875q-0.328125 0.015625 -0.65625 0.03125l0 -0.828125q0.984375 -0.015625 2.03125 -0.015625q1.046875 -0.015625 2.125 -0.015625q1.8125 0 3.03125 0.40625q1.234375 0.40625 1.890625 1.21875q0.65625 0.796875 0.71875 1.984375q0.03125 0.734375 -0.21875 1.53125q-0.25 0.796875 -0.9375 1.5q-0.671875 0.6875 -1.90625 1.125q-1.234375 0.421875 -3.15625 0.421875q-0.078125 0 -0.28125 0q-0.203125 0 -0.390625 -0.015625l0 2.703125q0 0.5 -0.015625 0.875q0 0.359375 -0.046875 0.59375q0.296875 -0.015625 0.578125 -0.03125q0.28125 -0.015625 0.5625 -0.03125q0.296875 -0.015625 0.578125 -0.03125l0 0.84375l-4.5625 0l0 -0.609375zm2.90625 -5.078125q0.359375 0.03125 0.609375 0.046875q0.25 0 0.609375 0q1.0625 0 1.9375 -0.40625q0.875 -0.421875 1.390625 -1.203125q0.53125 -0.796875 0.53125 -1.875q0 -0.875 -0.28125 -1.5q-0.28125 -0.625 -0.796875 -1.0q-0.515625 -0.390625 -1.234375 -0.5625q-0.703125 -0.1875 -1.546875 -0.1875q-0.65625 0 -0.90625 0.28125q-0.25 0.28125 -0.28125 0.78125q-0.03125 0.484375 -0.03125 1.15625l0 4.46875z" fill-rule="nonzero"/><path fill="#595959" d="m320.53754 189.82855q-0.296875 0 -0.59375 -0.09375q-0.296875 -0.078125 -0.546875 -0.3125q-0.25 -0.234375 -0.40625 -0.6875q-0.15625 -0.453125 -0.15625 -1.203125l0.03125 -3.609375l-0.953125 0.015625l0 -0.53125q0.3125 -0.015625 0.640625 -0.234375q0.34375 -0.234375 0.609375 -0.625q0.28125 -0.40625 0.375 -0.875l0.421875 0l0 1.734375l2.09375 0l0 0.484375l-2.09375 0.03125l-0.03125 3.453125q0 0.5625 0.09375 0.953125q0.09375 0.390625 0.296875 0.59375q0.21875 0.1875 0.5625 0.1875q0.34375 0 0.640625 -0.1875q0.3125 -0.203125 0.546875 -0.546875l0.34375 0.265625q-0.28125 0.40625 -0.546875 0.65625q-0.265625 0.234375 -0.515625 0.34375q-0.25 0.125 -0.46875 0.15625q-0.203125 0.03125 -0.34375 0.03125z" fill-rule="nonzero"/><path fill="#000000" fill-opacity="0.0" d="m194.31496 279.8727l50.29921 0l0 42.015747l-50.29921 0z" fill-rule="evenodd"/><path fill="#595959" d="m204.3462 306.18332q0.703125 -0.046875 0.953125 -0.328125q0.265625 -0.296875 0.296875 -0.796875q0.03125 -0.515625 0.03125 -1.171875l0 -8.0625q0 -0.375 0.015625 -0.71875q0.015625 -0.34375 0.046875 -0.625q-0.34375 0.015625 -0.6875 0.046875q-0.328125 0.015625 -0.65625 0.03125l0 -0.828125q0.984375 -0.015625 2.03125 -0.015625q1.046875 -0.015625 2.125 -0.015625q1.8125 0 3.03125 0.40625q1.234375 0.40625 1.890625 1.21875q0.65625 0.796875 0.71875 1.984375q0.03125 0.734375 -0.21875 1.53125q-0.25 0.796875 -0.9375 1.5q-0.671875 0.6875 -1.90625 1.125q-1.234375 0.421875 -3.15625 0.421875q-0.078125 0 -0.28125 0q-0.203125 0 -0.390625 -0.015625l0 2.703125q0 0.5 -0.015625 0.875q0 0.359375 -0.046875 0.59375q0.296875 -0.015625 0.578125 -0.03125q0.28125 -0.015625 0.5625 -0.03125q0.296875 -0.015625 0.578125 -0.03125l0 0.84375l-4.5625 0l0 -0.609375zm2.90625 -5.078125q0.359375 0.03125 0.609375 0.046875q0.25 0 0.609375 0q1.0625 0 1.9375 -0.40625q0.875 -0.421875 1.390625 -1.203125q0.53125 -0.796875 0.53125 -1.875q0 -0.875 -0.28125 -1.5q-0.28125 -0.625 -0.796875 -1.0q-0.515625 -0.390625 -1.234375 -0.5625q-0.703125 -0.1875 -1.546875 -0.1875q-0.65625 0 -0.90625 0.28125q-0.25 0.28125 -0.28125 0.78125q-0.03125 0.484375 -0.03125 1.15625l0 4.46875zm8.805695 -3.265625l-0.5 -0.375q0.203125 -0.265625 0.421875 -0.75q0.21875 -0.484375 0.359375 -1.0625q0.140625 -0.59375 0.078125 -1.15625q-0.140625 0.0625 -0.25 0.09375q-0.109375 0.015625 -0.21875 0.015625q-0.359375 0 -0.609375 -0.25q-0.25 -0.265625 -0.25 -0.65625q0 -0.53125 0.296875 -0.8125q0.3125 -0.28125 0.71875 -0.28125q0.65625 0 0.984375 0.5q0.34375 0.5 0.34375 1.203125q0 0.46875 -0.171875 1.140625q-0.171875 0.671875 -0.484375 1.3125q-0.3125 0.640625 -0.71875 1.078125z" fill-rule="nonzero"/><path fill="#595959" d="m220.75746 313.99582q-0.296875 0 -0.59375 -0.09375q-0.296875 -0.078125 -0.546875 -0.3125q-0.25 -0.234375 -0.40625 -0.6875q-0.15625 -0.453125 -0.15625 -1.203125l0.03125 -3.609375l-0.953125 0.015625l0 -0.53125q0.3125 -0.015625 0.640625 -0.234375q0.34375 -0.234375 0.609375 -0.625q0.28125 -0.40625 0.375 -0.875l0.421875 0l0 1.734375l2.09375 0l0 0.484375l-2.09375 0.03125l-0.03125 3.453125q0 0.5625 0.09375 0.953125q0.09375 0.390625 0.296875 0.59375q0.21875 0.1875 0.5625 0.1875q0.34375 0 0.640625 -0.1875q0.3125 -0.203125 0.546875 -0.546875l0.34375 0.265625q-0.28125 0.40625 -0.546875 0.65625q-0.265625 0.234375 -0.515625 0.34375q-0.25 0.125 -0.46875 0.15625q-0.203125 0.03125 -0.34375 0.03125z" fill-rule="nonzero"/><path fill="#000000" fill-opacity="0.0" d="m83.18898 155.70543l65.38582 0l0 42.015747l-65.38582 0z" fill-rule="evenodd"/><path fill="#595959" d="m93.22023 182.01605q0.703125 -0.046875 0.953125 -0.328125q0.265625 -0.296875 0.296875 -0.796875q0.03125 -0.515625 0.03125 -1.171875l0 -8.0625q0 -0.375 0.015625 -0.71875q0.015625 -0.34375 0.046875 -0.625q-0.34375 0.015625 -0.6875 0.046875q-0.328125 0.015625 -0.65625 0.03125l0 -0.828125q0.984375 -0.015625 2.03125 -0.015625q1.046875 -0.015625 2.125 -0.015625q1.8125 0 3.03125 0.40625q1.234375 0.40625 1.890625 1.21875q0.65625 0.796875 0.71875 1.984375q0.03125 0.734375 -0.21875 1.53125q-0.25 0.796875 -0.9375 1.5q-0.671875 0.6875 -1.90625 1.125q-1.234375 0.421875 -3.15625 0.421875q-0.078125 0 -0.28125 0q-0.203125 0 -0.390625 -0.015625l0 2.703125q0 0.5 -0.015625 0.875q0 0.359375 -0.046875 0.59375q0.296875 -0.015625 0.578125 -0.03125q0.28125 -0.015625 0.5625 -0.03125q0.296875 -0.015625 0.578125 -0.03125l0 0.84375l-4.5625 0l0 -0.609375zm2.90625 -5.078125q0.359375 0.03125 0.609375 0.046875q0.25 0 0.609375 0q1.0625 0 1.9375 -0.40625q0.875 -0.421875 1.390625 -1.203125q0.53125 -0.796875 0.53125 -1.875q0 -0.875 -0.28125 -1.5q-0.28125 -0.625 -0.796875 -1.0q-0.515625 -0.390625 -1.234375 -0.5625q-0.703125 -0.1875 -1.546875 -0.1875q-0.65625 0 -0.90625 0.28125q-0.25 0.28125 -0.28125 0.78125q-0.03125 0.484375 -0.03125 1.15625l0 4.46875z" fill-rule="nonzero"/><path fill="#595959" d="m106.3853 189.82855q-0.296875 0 -0.59375 -0.09375q-0.296875 -0.078125 -0.546875 -0.3125q-0.25 -0.234375 -0.40625 -0.6875q-0.15625 -0.453125 -0.15625 -1.203125l0.03125 -3.609375l-0.953125 0.015625l0 -0.53125q0.3125 -0.015625 0.640625 -0.234375q0.34375 -0.234375 0.609375 -0.625q0.28125 -0.40625 0.375 -0.875l0.421875 0l0 1.734375l2.09375 0l0 0.484375l-2.09375 0.03125l-0.03125 3.453125q0 0.5625 0.09375 0.953125q0.09375 0.390625 0.296875 0.59375q0.21875 0.1875 0.5625 0.1875q0.34375 0 0.640625 -0.1875q0.3125 -0.203125 0.546875 -0.546875l0.34375 0.265625q-0.28125 0.40625 -0.546875 0.65625q-0.265625 0.234375 -0.515625 0.34375q-0.25 0.125 -0.46875 0.15625q-0.203125 0.03125 -0.34375 0.03125zm2.4383392 -5.046875l5.546875 0l0 0.609375l-5.546875 0l0 -0.609375zm3.09375 -2.40625l0 5.546875l-0.625 0l0 -5.546875l0.625 0zm3.549759 7.25l0 -0.40625q0.4375 -0.03125 0.65625 -0.203125q0.234375 -0.171875 0.328125 -0.484375q0.09375 -0.3125 0.09375 -0.734375l-0.03125 -5.875l-1.5 0.96875l-0.25 -0.375l2.4375 -1.796875l0.421875 0l0 7.546875q0 0.234375 0 0.46875q0 0.21875 -0.03125 0.390625q0.265625 -0.015625 0.515625 -0.015625q0.265625 -0.015625 0.53125 -0.03125l0 0.546875l-3.171875 0z" fill-rule="nonzero"/><path fill="#000000" fill-opacity="0.0" d="m187.48294 193.74278l0 0c0 -15.881454 12.874451 -28.755905 28.755905 -28.755905l0 0c7.626541 0 14.94072 3.0296326 20.333496 8.422409c5.3927765 5.3927765 8.422409 12.706955 8.422409 20.333496l0 0c0 15.881454 -12.874451 28.755905 -28.755905 28.755905l0 0c-15.881454 0 -28.755905 -12.874451 -28.755905 -28.755905z" fill-rule="evenodd"/><path stroke="#595959" stroke-width="1.0" stroke-linejoin="round" stroke-linecap="butt" d="m187.48294 193.74278l0 0c0 -15.881454 12.874451 -28.755905 28.755905 -28.755905l0 0c7.626541 0 14.94072 3.0296326 20.333496 8.422409c5.3927765 5.3927765 8.422409 12.706955 8.422409 20.333496l0 0c0 15.881454 -12.874451 28.755905 -28.755905 28.755905l0 0c-15.881454 0 -28.755905 -12.874451 -28.755905 -28.755905z" fill-rule="evenodd"/><path fill="#ffffff" d="m211.92783 161.74016l15.086609 0l0 6.897644l-15.086609 0z" fill-rule="evenodd"/><path fill="#595959" d="m211.91208 161.74065l9.637787 3.9627686l-9.637787 2.9348755z" fill-rule="evenodd"/></g></svg>